<svg width="25" height="25" viewBox="0 0 25 25" fill="none" xmlns="http://www.w3.org/2000/svg">
<mask id="mask0_903_55" style="mask-type:luminance" maskUnits="userSpaceOnUse" x="0" y="0" width="25" height="25">
<path d="M24.6697 0.962708H0.669678V24.9627H24.6697V0.962708Z" fill="white"/>
</mask>
<g mask="url(#mask0_903_55)">
<path d="M17.6947 11.2045L20.0265 11.3285C20.3419 11.351 20.6573 11.2271 20.8826 11.0018L21.3783 10.5061C21.8176 10.0668 21.8176 9.35712 21.3783 8.91779L16.9963 4.53576C16.5569 4.09644 15.8472 4.09644 15.4079 4.53576L15.0362 4.9075C14.8221 5.12154 14.7095 5.40316 14.7095 5.70731V8.23063L11.7243 11.2158H7.70277C7.39862 11.2158 7.117 11.3397 6.90297 11.5425L5.78775 12.6577C5.34842 13.097 5.34842 13.8067 5.78775 14.2461L8.72787 17.1862L11.668 20.1263C12.1073 20.5656 12.817 20.5656 13.2563 20.1263L14.3716 19.0111C14.5856 18.797 14.6982 18.5154 14.6982 18.2113V14.201L17.6947 11.2045Z" fill="#191530"/>
<path d="M17.6947 11.2045L20.0265 11.3285C20.3419 11.351 20.6573 11.2271 20.8826 11.0018L21.3783 10.5061C21.8176 10.0668 21.8176 9.35712 21.3783 8.91779L16.9963 4.53576C16.5569 4.09644 15.8472 4.09644 15.4079 4.53576L15.0362 4.9075C14.8221 5.12154 14.7095 5.40316 14.7095 5.70731V8.23063L11.7243 11.2158H7.70277C7.39862 11.2158 7.117 11.3397 6.90297 11.5425L5.78775 12.6577C5.34842 13.097 5.34842 13.8067 5.78775 14.2461L8.72787 17.1862L11.668 20.1263C12.1073 20.5656 12.817 20.5656 13.2563 20.1263L14.3716 19.0111C14.5856 18.797 14.6982 18.5154 14.6982 18.2113V14.201L17.6947 11.2045Z" stroke="#191530" stroke-width="1.68973" stroke-linecap="round" stroke-linejoin="round"/>
<path d="M2.86719 23.0874L8.32875 17.6258" stroke="#191530" stroke-width="1.93216" stroke-linecap="round" stroke-linejoin="round"/>
<path d="M17.6947 11.2045L14.7095 8.21936" stroke="#191530" stroke-width="1.68973" stroke-linecap="round" stroke-linejoin="round"/>
</g>
</svg>
